                      =!DK GROUP HD BLURAY RELEAESEES!=
 
===================================================================================

      	
       Honey,We Shrunk Ourselves[1997]DvDRip In[Hindi-Eng]By !!!dip


===================================================================================

Storyline:

Autobots Bummblebee, Rachet, Ironhide and Sideswipe led by Optimus Prime, are back Wayne Szalinzki a wacky, absent-minded inventor, is back again but only this time he decides to use his infamous shrink machine just one more time. After when his wife Diane asks him to get rid of the "Tiki Man" a large tiki sculpture. Wayne refuses to get rid of it so he decides to restart the shrink ray and reduces the Tiki Man to pocket-size. However, after Wayne shrinks the Tiki Man the machine is accidentally activated and Wayne ends up shrinking himself and his brother Gordon! Meanwhile, when Gordon's wife Patty and Diane were going on a vacation they went back to the house when Patty suddenly realizes she forgot Mitch's medicine for his potassium deficiency. When they were about to leave, they decide to sneak into the attic and surprise the men, but the shrink ray is activated once again, and the ladies are shrunk as well! So the team must be very brave of disgusting...

Cast:

Rick Moranis	 ...	Wayne Szalinski
Eve Gordon	 ...	Diane Szalinski
Bug Hall	 ...	Adam Szalinski
Robin Bartlett	 ...	Patti Szalinski
Stuart Pankin	 ...	Gordon Szalinski
Allison Mack	 ...	Jenny Szalinski
Jake Richardson	 ...	Mitch Szalinski
JoJo Adams	 ...	Ricky King, Party Bully
Bryson Aust	 ...	Vince - Party Bully
Theodore Borders ...	Trey, Party Bully
Carlease Burke	 ...	Marcia
Laura Dunn	 ...	Trina, Wayne's Secretary
Robert Harvey	 ...	Postman
Mila Kunis	 ...	Jill, Party Guest
Erica Luttrell	 ...	Jody, Party Guest


Directors :Dean Cundey
Writers :Karey Kirkpatrick, Nell Scovell
Stars:Rick Moranis, Eve Gordon and Bug Hall
Genre:Action | Adventure | Comedy
Language:[English-Hindi]
Format :Color, Dubbed,Widescreen
Release Date :18 March 1997 (USA)
Run Time :01H:11M:52S
Encoder:Deep Shikha



Video Specifications:


Video
ID : 1
Format : MPEG-4 Visual
Format profile : Advanced Simple@L1
Format settings, BVOP : Yes
Format settings, QPel : No
Format settings, GMC : No warppoints
Format settings, Matrix : Default (H.263)
Codec ID : DIVX
Codec ID/Info : Project Mayo
Codec ID/Hint : DivX 4
Duration : 1h 11mn
Bit rate : 1 165 Kbps
Width : 602 pixels
Height : 330 pixels
Display aspect ratio : 4:3
Original display aspect ratio : 4:3
Frame rate : 25.000 fps
Color space : YUV
Chroma subsampling : 4:2:0
Bit depth : 8 bits
Scan type : Progressive
Compression mode : Lossy
Bits/(Pixel*Frame) : 0.235
Stream size : 599 MiB (79%)
Title : !!!dip
Writing library : Lavc50.0.0
Language : English
Team : DK Group HD Bluray Releases



Audio Specifications:


Audio #1
ID : 2
Format : MPEG Audio
Format version : Version 1
Format profile : Layer 3
Mode : Joint stereo
Mode extension : MS Stereo
Muxing mode : Header stripping
Codec ID : A_MPEG/L3
Codec ID/Hint : MP3
Duration : 1h 11mn
Bit rate mode : Constant
Bit rate : 64.0 Kbps
Channel(s) : 2 channels
Sampling rate : 48.0 KHz
Compression mode : Lossy
Stream size : 32.9 MiB (4%)
Title : !!!dip
Language : English

Audio #2
ID : 3
Format : MPEG Audio
Format version : Version 1
Format profile : Layer 2
Muxing mode : Header stripping
Codec ID : A_MPEG/L2
Codec ID/Hint : MP2
Duration : 1h 11mn
Bit rate mode : Constant
Bit rate : 224 Kbps
Channel(s) : 2 channels
Sampling rate : 48.0 KHz
Compression mode : Lossy
Delay relative to video : 16ms
Stream size : 115 MiB (15%)
Title : !!!dip
Language : Hindi

Text
ID : 4
Format : UTF-8
Codec ID : S_TEXT/UTF8
Codec ID/Info : UTF-8 Plain Text
Title : !!!dip
Language : English




SAMPLE IMAGE:

     
http://www.pix2links.com/image/ZuDw.jpg
 
http://www.pix2links.com/image/M9Upa.jpg
 
http://www.pix2links.com/image/L45Up.jpg
 
http://www.pix2links.com/image/eENkw.jpg
 
http://www.pix2links.com/image/bRGfz.jpg


VIDEO SAMPLE IS AVAILABLE

				
				